<svg version="1.1" id="Capa_1" xmlns="http://www.w3.org/2000/svg" xmlns:xlink="http://www.w3.org/1999/xlink" x="0px" y="0px" viewBox="0 0 512 512" style="enable-background:new 0 0 512 512;" xml:space="preserve" width="300" height="300" xmlns:svgjs="http://svgjs.dev/svgjs"><g width="100%" height="100%" transform="matrix(1,0,0,1,0,0)"><g>
	<g>
		<path d="M153.595,373.059C169.736,359.292,180,338.828,180,316c0-20.03-7.759-38.999-21.847-53.412&#xA;&#9;&#9;&#9;C143.915,248.022,125.038,240,105,240s-38.915,8.022-53.153,22.588C37.759,277.001,30,295.97,30,316&#xA;&#9;&#9;&#9;c0,22.828,10.264,43.292,26.405,57.059C22.908,390.79,0,426.242,0,467v30c0,8.284,6.716,15,15,15h180c8.284,0,15-6.716,15-15v-30&#xA;&#9;&#9;&#9;C210,426.242,187.092,390.79,153.595,373.059z M105,270c24.393,0,45,21.065,45,46c0,24.813-20.187,45-45,45s-45-20.187-45-45&#xA;&#9;&#9;&#9;C60,291.065,80.607,270,105,270z M180,482H30v-15c0-41.907,33.645-76,75-76s75,34.093,75,76V482z" fill="#004098" fill-opacity="1" data-original-color="#000000ff" stroke="none" stroke-opacity="1"/>
	</g>
</g><g>
	<g>
		<path d="M455.595,373.059C471.736,359.292,482,338.828,482,316c0-20.03-7.759-38.999-21.847-53.412&#xA;&#9;&#9;&#9;C445.915,248.022,427.038,240,407,240c-20.038,0-38.915,8.022-53.153,22.588C339.759,277.001,332,295.97,332,316&#xA;&#9;&#9;&#9;c0,22.828,10.264,43.292,26.405,57.059C324.908,390.79,302,426.242,302,467v30c0,8.284,6.716,15,15,15h180c8.284,0,15-6.716,15-15&#xA;&#9;&#9;&#9;v-30C512,426.242,489.092,390.79,455.595,373.059z M407,270c24.393,0,45,21.065,45,46c0,24.813-20.187,45-45,45s-45-20.187-45-45&#xA;&#9;&#9;&#9;C362,291.065,382.607,270,407,270z M482,482H332v-15c0-41.907,33.645-76,75-76c41.355,0,75,34.093,75,76V482z" fill="#004098" fill-opacity="1" data-original-color="#000000ff" stroke="none" stroke-opacity="1"/>
	</g>
</g><g>
	<g>
		<path d="M467,0H45C20.187,0,0,20.187,0,45v120c0,24.813,20.187,45,45,45h166v45c0,11.995,13.366,19.043,23.257,12.523L321.5,210&#xA;&#9;&#9;&#9;H467c24.813,0,45-20.187,45-45V45C512,20.187,491.813,0,467,0z M482,165c0,8.271-6.729,15-15,15H317&#xA;&#9;&#9;&#9;c-2.936,0-5.806,0.861-8.257,2.477L241,227.143V195c0-8.284-6.716-15-15-15H45c-8.271,0-15-6.729-15-15V45c0-8.271,6.729-15,15-15&#xA;&#9;&#9;&#9;h422c8.271,0,15,6.729,15,15V165z" fill="#004098" fill-opacity="1" data-original-color="#000000ff" stroke="none" stroke-opacity="1"/>
	</g>
</g><g>
	<g>
		<path d="M437,60H75c-8.284,0-15,6.716-15,15s6.716,15,15,15h362c8.284,0,15-6.716,15-15S445.284,60,437,60z" fill="#004098" fill-opacity="1" data-original-color="#000000ff" stroke="none" stroke-opacity="1"/>
	</g>
</g><g>
	<g>
		<path d="M317,120H75c-8.284,0-15,6.716-15,15s6.716,15,15,15h242c8.284,0,15-6.716,15-15S325.284,120,317,120z" fill="#004098" fill-opacity="1" data-original-color="#000000ff" stroke="none" stroke-opacity="1"/>
	</g>
</g><g>
</g><g>
</g><g>
</g><g>
</g><g>
</g><g>
</g><g>
</g><g>
</g><g>
</g><g>
</g><g>
</g><g>
</g><g>
</g><g>
</g><g>
</g></g></svg>